<?xml version="1.0" standalone="no"?>
<!DOCTYPE svg PUBLIC "-//W3C//DTD SVG 20010904//EN"
 "http://www.w3.org/TR/2001/REC-SVG-20010904/DTD/svg10.dtd">
<svg version="1.0" xmlns="http://www.w3.org/2000/svg"
 width="201.000000pt" height="201.000000pt" viewBox="0 0 201.000000 201.000000"
 preserveAspectRatio="xMidYMid meet">
<metadata>
Created by potrace 1.14, written by Peter Selinger 2001-2017
</metadata>
<g transform="translate(0.000000,201.000000) scale(0.100000,-0.100000)"
fill="#000000" stroke="none">
<path d="M773 1920 c-109 -20 -223 -76 -223 -110 0 -29 33 -26 179 15 141 39
181 43 230 17 39 -19 54 -44 22 -35 -22 6 -247 -38 -325 -64 -84 -27 -156
-107 -156 -173 0 -37 23 -85 45 -94 55 -21 212 8 322 59 93 43 152 90 194 155
17 27 37 51 44 54 14 5 177 -42 239 -68 129 -57 258 -174 313 -286 30 -62 68
-193 94 -328 14 -76 28 -92 76 -90 70 3 112 -93 62 -143 -16 -16 -30 -19 -76
-17 -66 4 -65 5 -87 -112 -46 -249 -240 -428 -546 -506 -89 -23 -328 -26 -425
-5 -226 47 -377 141 -465 289 -19 31 -39 60 -45 65 -5 4 -40 4 -76 1 -74 -7
-70 -10 -83 66 -8 48 9 69 64 78 l45 8 1 214 c0 193 3 223 23 290 33 109 77
185 154 267 71 74 82 105 40 111 -41 6 -161 -125 -217 -235 -44 -87 -57 -156
-62 -328 -7 -239 -8 -241 -54 -265 -50 -26 -70 -64 -70 -135 0 -107 42 -154
137 -155 l62 0 40 -58 c59 -87 132 -147 246 -203 296 -145 630 -142 935 8 79
39 110 62 180 133 108 107 147 179 190 348 11 42 11 42 55 42 151 0 163 235
16 293 -44 18 -42 13 -82 176 -38 154 -92 261 -181 356 -112 120 -247 194
-421 231 -62 13 -78 21 -117 58 -25 24 -60 51 -78 61 -41 20 -148 27 -219 15z
m237 -199 c-34 -64 -212 -169 -326 -192 -70 -14 -90 -9 -106 25 -36 81 173
182 385 185 54 1 57 0 47 -18z"/>
<path d="M1264 990 c-29 -19 -63 -74 -52 -85 2 -3 29 11 58 30 30 19 62 35 72
35 10 0 35 -16 57 -35 21 -19 44 -35 51 -35 21 0 2 53 -31 83 -37 34 -107 37
-155 7z"/>
<path d="M450 872 c-33 -16 -80 -73 -80 -96 0 -20 18 -39 29 -31 7 3 23 24 36
46 30 46 59 56 110 35 21 -9 47 -14 57 -10 19 6 19 7 -3 30 -20 21 -74 44
-104 44 -5 0 -26 -8 -45 -18z"/>
<path d="M877 782 c-17 -19 -23 -62 -9 -62 4 0 13 9 19 20 21 32 46 41 76 25
31 -16 36 -6 9 18 -25 22 -75 21 -95 -1z"/>
<path d="M1438 786 c-118 -42 -138 -112 -36 -123 82 -9 218 48 218 92 0 44
-100 60 -182 31z"/>
<path d="M530 633 c-97 -17 -160 -55 -160 -99 0 -19 8 -25 42 -35 105 -28 288
69 226 118 -16 13 -75 22 -108 16z"/>
<path d="M1120 563 c-25 -20 -73 -49 -108 -66 -77 -36 -124 -34 -215 11 -34
17 -63 29 -65 27 -9 -8 42 -76 81 -110 23 -20 65 -43 94 -51 48 -14 58 -14
108 1 63 18 118 62 146 116 19 37 26 110 12 108 -5 0 -28 -16 -53 -36z"/>
</g>
</svg>
