<svg xmlns="http://www.w3.org/2000/svg" viewBox="0 0 85 18"><defs><style>.cls-1{fill:#fffbe4;}</style></defs><title>deco-moko-creamlight</title><g id="レイヤー_2" data-name="レイヤー 2"><g id="レイヤー_1-2" data-name="レイヤー 1"><g id="レイヤー_1-2-2" data-name="レイヤー 1-2"><path class="cls-1" d="M66.11,6.46,65.4,7a33.63,33.63,0,0,0-2.67,2.51A12.64,12.64,0,0,1,61.16,11a30.75,30.75,0,0,1-18.68,6.3A30.79,30.79,0,0,1,23.83,11a12,12,0,0,1-1.47-1.36,29.87,29.87,0,0,0-2.95-2.76h0l-.51-.4h0a30.74,30.74,0,0,0-8.7-4.74A30.94,30.94,0,0,0,0,0H0V17.25H0V18H85V0A30.63,30.63,0,0,0,66.11,6.46Z"/></g></g></g></svg>